<svg width="519" height="117" viewBox="0 0 519 117" fill="none" xmlns="http://www.w3.org/2000/svg">
<path d="M408.924 74.0985H396.924V0.867188H408.924V74.0985Z" fill="white"/>
<path d="M356.447 74.9237C348.926 74.9237 343.541 73.6074 340.293 70.9749C337.046 68.3082 335.285 63.8809 335.011 57.6928C334.738 54.1372 334.823 50.4961 335.268 46.7696H346.755C346.55 49.1286 346.43 51.4363 346.396 53.6927C346.396 55.9492 346.516 58.0517 346.755 60.0005C346.926 61.5731 347.746 62.7868 349.217 63.6415C350.721 64.4621 353.114 64.8723 356.396 64.8723C359.644 64.8723 361.969 64.4621 363.371 63.6415C364.806 62.7868 365.627 61.5731 365.832 60.0005C366.071 58.2227 366.174 56.5475 366.14 54.9748C366.106 53.3679 366.003 51.6756 365.832 49.8978C365.661 48.4277 365.114 47.1286 364.191 46.0004C363.268 44.8722 361.439 44.12 358.704 43.7439L350.191 41.9491C346.157 41.1627 343.046 40.0345 340.858 38.5644C338.704 37.0943 337.182 35.2481 336.293 33.0259C335.404 30.8037 334.892 28.1883 334.755 25.1797C334.687 23.7438 334.652 22.3762 334.652 21.0771C334.687 19.7779 334.738 18.4788 334.806 17.1796C335.011 11.0599 336.738 6.66672 339.986 4.00003C343.234 1.33334 348.704 0 356.396 0C363.644 0 368.892 1.33334 372.14 4.00003C375.388 6.66672 377.131 11.0599 377.371 17.1796C377.473 18.5472 377.49 20.2395 377.422 22.2566C377.388 24.2395 377.319 26.137 377.217 27.9489H365.627C365.935 23.4703 365.969 19.1113 365.73 14.8719C365.456 11.6582 362.328 10.0514 356.345 10.0514C353.097 10.0514 350.755 10.4616 349.319 11.2821C347.883 12.1027 347.063 13.2993 346.858 14.8719C346.618 16.5813 346.499 18.3078 346.499 20.0514C346.533 21.7609 346.652 23.4703 346.858 25.1797C347.029 26.684 347.576 27.9831 348.499 29.0772C349.422 30.137 351.336 30.8549 354.242 31.231L362.088 32.7182C366.259 33.4704 369.456 34.6157 371.678 36.1541C373.901 37.6926 375.456 39.6072 376.345 41.8978C377.268 44.1542 377.798 46.8209 377.935 49.8978C378.037 51.2654 378.071 52.5816 378.037 53.8466C378.003 55.1116 377.935 56.3936 377.832 57.6928C377.559 63.8809 375.781 68.3082 372.499 70.9749C369.251 73.6074 363.9 74.9237 356.447 74.9237Z" fill="white"/>
<path d="M318.741 74.0985H282.895V0.867188H318.741V11.7391H294.895V31.4828H317.356V42.3547H294.895V63.2267H318.741V74.0985Z" fill="white"/>
<path d="M233.393 74.0985H221.393V0.867188H233.393V31.4828H252.008V0.867188H264.008V74.0985H252.008V42.3547H233.393V74.0985Z" fill="white"/>
<path d="M182.249 74.0985H170.249V0.867188H204.352V11.7391H182.249V31.4828H203.121V42.3547H182.249V74.0985Z" fill="white"/>
<path d="M153.723 74.0985H120.03V0.867188H132.03V63.2267H153.723V74.0985Z" fill="white"/>
<path d="M70.6813 74.0985H58.3223L70.7326 0.867188H91.5533L103.964 74.0985H91.6559L89.0405 57.6882H73.348L70.6813 74.0985ZM76.6814 30.6623L74.425 46.8163H87.9122L85.7071 30.6623L83.0404 11.7391H79.3481L76.6814 30.6623Z" fill="white"/>
<path d="M32.9233 74.0985H12.1027L0 0.867188H12.5642L18.6668 38.3034L20.7181 63.2267H24.2053L26.2566 38.3034L32.4618 0.867188H44.9747L32.9233 74.0985Z" fill="white"/>
<path d="M407.033 111.844H405.366V95.2031H407.033V111.844Z" fill="white" stroke="white"/>
<path d="M396.534 111.985C395.491 111.985 394.718 111.78 394.213 111.37C393.718 110.96 393.427 110.319 393.342 109.447C393.333 109.276 393.32 109.105 393.303 108.934C393.295 108.763 393.299 108.596 393.316 108.434C393.376 107.673 393.615 107.037 394.034 106.524C394.453 106.002 395.248 105.528 396.419 105.101C396.897 104.93 397.401 104.776 397.931 104.639C398.461 104.502 398.987 104.37 399.508 104.242V101.87C399.508 101.451 399.35 101.143 399.034 100.947C398.718 100.742 398.166 100.639 397.38 100.639C396.696 100.639 396.175 100.725 395.816 100.895C395.466 101.066 395.273 101.378 395.239 101.831C395.222 102.045 395.213 102.353 395.213 102.754C395.213 103.148 395.222 103.481 395.239 103.754H393.636C393.619 103.541 393.602 103.263 393.585 102.921C393.568 102.579 393.572 102.276 393.598 102.011C393.641 101.019 393.961 100.306 394.56 99.8698C395.166 99.4253 396.128 99.2031 397.444 99.2031C398.82 99.2031 399.773 99.4424 400.303 99.9211C400.842 100.4 401.115 101.186 401.124 102.28V111.844H399.508V110.665H399.149C398.936 111.092 398.628 111.421 398.226 111.652C397.833 111.874 397.269 111.985 396.534 111.985ZM396.944 110.601C398.175 110.601 399.025 110.233 399.495 109.498V105.613C399.085 105.699 398.662 105.801 398.226 105.921C397.799 106.032 397.295 106.186 396.713 106.383C396.021 106.639 395.56 106.934 395.329 107.267C395.098 107.601 394.966 107.99 394.931 108.434C394.94 108.562 394.944 108.703 394.944 108.857C394.953 109.002 394.966 109.156 394.983 109.319C395.042 109.729 395.248 110.045 395.598 110.267C395.948 110.49 396.397 110.601 396.944 110.601Z" fill="white" stroke="white"/>
<path d="M389.343 97.0493H387.69V95.2031H389.343V97.0493ZM389.343 111.844H387.677V99.3698H389.343V111.844Z" fill="white" stroke="white"/>
<path d="M378.794 111.844H377.14V99.3698H378.794V100.536H379.152C379.375 100.109 379.67 99.7801 380.037 99.5493C380.405 99.3185 380.862 99.2031 381.409 99.2031C382.229 99.2031 382.836 99.4211 383.229 99.857C383.631 100.284 383.832 101.028 383.832 102.088C383.832 102.319 383.823 102.592 383.806 102.908C383.789 103.225 383.764 103.507 383.729 103.754H382.14C382.157 103.669 382.165 103.519 382.165 103.306C382.174 103.092 382.178 102.878 382.178 102.665C382.187 102.451 382.191 102.306 382.191 102.229C382.191 101.596 382.084 101.169 381.87 100.947C381.657 100.716 381.315 100.601 380.845 100.601C379.845 100.601 379.161 100.989 378.794 101.767V111.844Z" fill="white" stroke="white"/>
<path d="M368.578 111.985C367.535 111.985 366.762 111.78 366.257 111.37C365.762 110.96 365.471 110.319 365.386 109.447C365.377 109.276 365.364 109.105 365.347 108.934C365.338 108.763 365.343 108.596 365.36 108.434C365.42 107.673 365.659 107.037 366.078 106.524C366.497 106.002 367.292 105.528 368.462 105.101C368.941 104.93 369.445 104.776 369.975 104.639C370.505 104.502 371.031 104.37 371.552 104.242V101.87C371.552 101.451 371.394 101.143 371.078 100.947C370.762 100.742 370.21 100.639 369.424 100.639C368.74 100.639 368.219 100.725 367.86 100.895C367.509 101.066 367.317 101.378 367.283 101.831C367.266 102.045 367.257 102.353 367.257 102.754C367.257 103.148 367.266 103.481 367.283 103.754H365.68C365.663 103.541 365.646 103.263 365.629 102.921C365.612 102.579 365.616 102.276 365.642 102.011C365.685 101.019 366.005 100.306 366.603 99.8698C367.21 99.4253 368.172 99.2031 369.488 99.2031C370.864 99.2031 371.817 99.4424 372.347 99.9211C372.886 100.4 373.159 101.186 373.168 102.28V111.844H371.552V110.665H371.193C370.98 111.092 370.672 111.421 370.27 111.652C369.877 111.874 369.313 111.985 368.578 111.985ZM368.988 110.601C370.219 110.601 371.069 110.233 371.539 109.498V105.613C371.129 105.699 370.706 105.801 370.27 105.921C369.843 106.032 369.339 106.186 368.757 106.383C368.065 106.639 367.603 106.934 367.373 107.267C367.142 107.601 367.009 107.99 366.975 108.434C366.984 108.562 366.988 108.703 366.988 108.857C366.997 109.002 367.009 109.156 367.027 109.319C367.086 109.729 367.292 110.045 367.642 110.267C367.992 110.49 368.441 110.601 368.988 110.601Z" fill="white" stroke="white"/>
<path d="M358.104 111.998C356.728 111.998 355.771 111.776 355.232 111.331C354.702 110.887 354.416 110.16 354.373 109.152C354.356 108.887 354.344 108.592 354.335 108.267C354.335 107.934 354.352 107.643 354.386 107.395H355.886C355.869 107.789 355.861 108.152 355.861 108.485C355.869 108.81 355.878 109.088 355.886 109.319C355.895 109.789 356.057 110.113 356.373 110.293C356.698 110.472 357.275 110.562 358.104 110.562C358.95 110.562 359.544 110.472 359.886 110.293C360.237 110.113 360.425 109.789 360.45 109.319C360.476 109.028 360.493 108.814 360.502 108.678C360.51 108.532 360.51 108.327 360.502 108.062C360.476 107.626 360.361 107.289 360.156 107.049C359.95 106.81 359.506 106.639 358.822 106.537L357.322 106.19C356.553 106.028 355.959 105.823 355.54 105.575C355.121 105.327 354.826 105.007 354.655 104.613C354.485 104.212 354.382 103.707 354.348 103.101C354.322 102.793 354.344 102.455 354.412 102.088C354.429 101.054 354.707 100.314 355.245 99.8698C355.792 99.4253 356.784 99.2031 358.22 99.2031C359.596 99.2031 360.549 99.4211 361.079 99.857C361.617 100.293 361.912 101.011 361.963 102.011C361.963 102.267 361.959 102.562 361.95 102.895C361.95 103.22 361.938 103.507 361.912 103.754H360.361C360.403 103.455 360.42 103.113 360.412 102.729C360.412 102.344 360.403 102.045 360.386 101.831C360.378 101.378 360.22 101.066 359.912 100.895C359.613 100.725 359.049 100.639 358.22 100.639C357.382 100.639 356.809 100.725 356.502 100.895C356.202 101.066 356.036 101.378 356.002 101.831C355.993 102.045 355.98 102.225 355.963 102.37C355.946 102.507 355.942 102.699 355.95 102.947C355.976 103.246 356.019 103.511 356.079 103.742C356.147 103.972 356.292 104.165 356.514 104.319C356.745 104.464 357.117 104.575 357.63 104.652L359.066 104.947C360.109 105.16 360.869 105.494 361.348 105.947C361.826 106.391 362.066 107.066 362.066 107.972C362.066 108.16 362.062 108.361 362.053 108.575C362.053 108.789 362.044 108.994 362.027 109.19C361.968 110.19 361.651 110.908 361.079 111.344C360.514 111.78 359.523 111.998 358.104 111.998Z" fill="white" stroke="white"/>
<path d="M347.157 111.998C345.747 111.998 344.739 111.776 344.132 111.331C343.533 110.887 343.213 110.16 343.17 109.152C343.136 108.519 343.11 107.776 343.093 106.921C343.085 106.066 343.085 105.207 343.093 104.344C343.11 103.481 343.136 102.729 343.17 102.088C343.213 101.054 343.542 100.314 344.157 99.8698C344.781 99.4253 345.781 99.2031 347.157 99.2031C348.457 99.2031 349.397 99.4211 349.978 99.857C350.559 100.293 350.88 101.011 350.94 102.011C350.957 102.31 350.974 102.831 350.991 103.575C351.008 104.319 350.982 105.109 350.914 105.947H344.773C344.773 106.485 344.777 107.032 344.786 107.588C344.794 108.143 344.811 108.72 344.837 109.319C344.845 109.789 345.025 110.113 345.375 110.293C345.726 110.472 346.303 110.562 347.106 110.562C347.901 110.562 348.461 110.472 348.786 110.293C349.11 110.113 349.29 109.789 349.324 109.319C349.35 108.849 349.35 108.207 349.324 107.395H350.914C350.957 107.643 350.974 107.934 350.965 108.267C350.965 108.592 350.957 108.887 350.94 109.152C350.88 110.16 350.572 110.887 350.016 111.331C349.469 111.776 348.516 111.998 347.157 111.998ZM344.773 104.588H349.35C349.367 104.007 349.375 103.451 349.375 102.921C349.375 102.391 349.358 102.028 349.324 101.831C349.29 101.404 349.106 101.101 348.773 100.921C348.44 100.733 347.901 100.639 347.157 100.639C346.328 100.639 345.734 100.733 345.375 100.921C345.025 101.101 344.845 101.404 344.837 101.831C344.811 102.327 344.79 102.801 344.773 103.254C344.764 103.707 344.764 104.152 344.773 104.588Z" fill="white" stroke="white"/>
<path d="M334.722 111.844H333.068V99.3698H334.722V100.536H335.081C335.303 100.109 335.598 99.7801 335.966 99.5493C336.333 99.3185 336.791 99.2031 337.338 99.2031C338.158 99.2031 338.765 99.4211 339.158 99.857C339.56 100.284 339.761 101.028 339.761 102.088C339.761 102.319 339.752 102.592 339.735 102.908C339.718 103.225 339.692 103.507 339.658 103.754H338.068C338.085 103.669 338.094 103.519 338.094 103.306C338.103 103.092 338.107 102.878 338.107 102.665C338.115 102.451 338.12 102.306 338.12 102.229C338.12 101.596 338.013 101.169 337.799 100.947C337.585 100.716 337.244 100.601 336.774 100.601C335.774 100.601 335.09 100.989 334.722 101.767V111.844Z" fill="white" stroke="white"/>
<path d="M323.211 115.998H321.558V99.3698H323.211V100.536H323.57C323.861 100.083 324.207 99.7501 324.609 99.5365C325.019 99.3142 325.579 99.2031 326.288 99.2031C327.263 99.2031 327.981 99.4168 328.442 99.8442C328.912 100.263 329.16 100.968 329.186 101.96C329.212 102.395 329.229 102.925 329.237 103.549C329.246 104.165 329.25 104.819 329.25 105.511C329.25 106.195 329.246 106.861 329.237 107.511C329.229 108.16 329.212 108.737 329.186 109.242C329.16 110.225 328.904 110.93 328.417 111.357C327.929 111.784 327.199 111.998 326.224 111.998C325.583 111.998 325.058 111.896 324.647 111.69C324.237 111.477 323.878 111.135 323.57 110.665H323.211V115.998ZM325.763 110.601C326.917 110.601 327.511 110.195 327.545 109.383C327.613 108.058 327.639 106.75 327.622 105.46C327.613 104.169 327.588 102.955 327.545 101.819C327.528 101.391 327.391 101.083 327.135 100.895C326.878 100.699 326.447 100.601 325.84 100.601C324.532 100.601 323.656 100.989 323.211 101.767V109.434C323.442 109.853 323.754 110.152 324.147 110.331C324.549 110.511 325.088 110.601 325.763 110.601Z" fill="white" stroke="white"/>
<path d="M306.329 111.844H304.675V99.3698H306.329V100.536H306.649C306.94 100.083 307.277 99.7501 307.662 99.5365C308.055 99.3142 308.594 99.2031 309.277 99.2031C310.653 99.2031 311.5 99.6818 311.816 100.639H312.162C312.444 100.195 312.803 99.8442 313.239 99.5877C313.675 99.3313 314.235 99.2031 314.918 99.2031C315.833 99.2031 316.517 99.4168 316.97 99.8442C317.423 100.263 317.649 100.968 317.649 101.96V111.844H316.008V101.819C315.991 101.391 315.859 101.083 315.611 100.895C315.363 100.699 314.953 100.601 314.38 100.601C313.243 100.601 312.453 101.002 312.008 101.806V111.844H310.367V101.819C310.35 101.391 310.218 101.083 309.97 100.895C309.722 100.699 309.32 100.601 308.765 100.601C307.551 100.601 306.739 100.989 306.329 101.767V111.844Z" fill="white" stroke="white"/>
<path d="M297.163 111.998C295.753 111.998 294.744 111.776 294.138 111.331C293.539 110.887 293.219 110.16 293.176 109.152C293.142 108.519 293.116 107.776 293.099 106.921C293.091 106.066 293.091 105.207 293.099 104.344C293.116 103.481 293.142 102.729 293.176 102.088C293.219 101.054 293.548 100.314 294.163 99.8698C294.787 99.4253 295.787 99.2031 297.163 99.2031C298.462 99.2031 299.403 99.4211 299.984 99.857C300.565 100.293 300.886 101.011 300.945 102.011C300.962 102.31 300.98 102.831 300.997 103.575C301.014 104.319 300.988 105.109 300.92 105.947H294.779C294.779 106.485 294.783 107.032 294.792 107.588C294.8 108.143 294.817 108.72 294.843 109.319C294.851 109.789 295.031 110.113 295.381 110.293C295.732 110.472 296.309 110.562 297.112 110.562C297.907 110.562 298.467 110.472 298.792 110.293C299.116 110.113 299.296 109.789 299.33 109.319C299.356 108.849 299.356 108.207 299.33 107.395H300.92C300.962 107.643 300.98 107.934 300.971 108.267C300.971 108.592 300.962 108.887 300.945 109.152C300.886 110.16 300.578 110.887 300.022 111.331C299.475 111.776 298.522 111.998 297.163 111.998ZM294.779 104.588H299.356C299.373 104.007 299.381 103.451 299.381 102.921C299.381 102.391 299.364 102.028 299.33 101.831C299.296 101.404 299.112 101.101 298.779 100.921C298.445 100.733 297.907 100.639 297.163 100.639C296.334 100.639 295.74 100.733 295.381 100.921C295.031 101.101 294.851 101.404 294.843 101.831C294.817 102.327 294.796 102.801 294.779 103.254C294.77 103.707 294.77 104.152 294.779 104.588Z" fill="white" stroke="white"/>
<path d="M278.05 111.985C277.007 111.985 276.233 111.78 275.729 111.37C275.233 110.96 274.943 110.319 274.857 109.447C274.849 109.276 274.836 109.105 274.819 108.934C274.81 108.763 274.814 108.596 274.832 108.434C274.891 107.673 275.131 107.037 275.55 106.524C275.968 106.002 276.763 105.528 277.934 105.101C278.413 104.93 278.917 104.776 279.447 104.639C279.977 104.502 280.503 104.37 281.024 104.242V101.87C281.024 101.451 280.866 101.143 280.55 100.947C280.233 100.742 279.682 100.639 278.896 100.639C278.212 100.639 277.691 100.725 277.332 100.895C276.981 101.066 276.789 101.378 276.755 101.831C276.738 102.045 276.729 102.353 276.729 102.754C276.729 103.148 276.738 103.481 276.755 103.754H275.152C275.135 103.541 275.118 103.263 275.101 102.921C275.084 102.579 275.088 102.276 275.114 102.011C275.156 101.019 275.477 100.306 276.075 99.8698C276.682 99.4253 277.644 99.2031 278.96 99.2031C280.336 99.2031 281.289 99.4424 281.819 99.9211C282.357 100.4 282.631 101.186 282.639 102.28V111.844H281.024V110.665H280.665C280.451 111.092 280.144 111.421 279.742 111.652C279.349 111.874 278.785 111.985 278.05 111.985ZM278.46 110.601C279.691 110.601 280.541 110.233 281.011 109.498V105.613C280.601 105.699 280.178 105.801 279.742 105.921C279.314 106.032 278.81 106.186 278.229 106.383C277.537 106.639 277.075 106.934 276.844 107.267C276.614 107.601 276.481 107.99 276.447 108.434C276.455 108.562 276.46 108.703 276.46 108.857C276.468 109.002 276.481 109.156 276.498 109.319C276.558 109.729 276.763 110.045 277.114 110.267C277.464 110.49 277.913 110.601 278.46 110.601Z" fill="white" stroke="white"/>
<path d="M270.859 111.842H269.192V99.3676H270.859V111.842ZM270.628 98.4574H269.539L270.718 95.7266H271.872L270.628 98.4574Z" fill="white" stroke="white"/>
<path d="M260.309 111.844H258.655V99.3698H260.309V100.536H260.668C260.89 100.109 261.185 99.7801 261.553 99.5493C261.92 99.3185 262.378 99.2031 262.925 99.2031C263.745 99.2031 264.352 99.4211 264.745 99.857C265.147 100.284 265.348 101.028 265.348 102.088C265.348 102.319 265.339 102.592 265.322 102.908C265.305 103.225 265.279 103.507 265.245 103.754H263.655C263.672 103.669 263.681 103.519 263.681 103.306C263.69 103.092 263.694 102.878 263.694 102.665C263.702 102.451 263.707 102.306 263.707 102.229C263.707 101.596 263.6 101.169 263.386 100.947C263.172 100.716 262.831 100.601 262.36 100.601C261.36 100.601 260.677 100.989 260.309 101.767V111.844Z" fill="white" stroke="white"/>
<path d="M250.876 111.998C249.483 111.998 248.5 111.759 247.927 111.28C247.354 110.802 247.047 110.007 247.004 108.896C246.953 108.263 246.919 107.562 246.901 106.793C246.884 106.015 246.884 105.233 246.901 104.447C246.919 103.66 246.953 102.947 247.004 102.306C247.047 101.195 247.354 100.4 247.927 99.9211C248.508 99.4424 249.491 99.2031 250.876 99.2031C252.278 99.2031 253.256 99.4424 253.812 99.9211C254.376 100.4 254.679 101.195 254.722 102.306C254.773 102.938 254.808 103.643 254.825 104.421C254.842 105.19 254.842 105.968 254.825 106.754C254.808 107.532 254.773 108.246 254.722 108.896C254.679 109.998 254.376 110.793 253.812 111.28C253.256 111.759 252.278 111.998 250.876 111.998ZM250.876 110.562C251.662 110.562 252.222 110.468 252.555 110.28C252.889 110.084 253.068 109.763 253.094 109.319C253.179 107.985 253.222 106.746 253.222 105.601C253.222 104.455 253.179 103.216 253.094 101.883C253.068 101.43 252.893 101.109 252.568 100.921C252.243 100.733 251.679 100.639 250.876 100.639C250.072 100.639 249.504 100.733 249.171 100.921C248.846 101.109 248.671 101.43 248.645 101.883C248.568 103.216 248.525 104.46 248.517 105.613C248.517 106.759 248.56 107.994 248.645 109.319C248.662 109.763 248.842 110.084 249.184 110.28C249.534 110.468 250.098 110.562 250.876 110.562Z" fill="white" stroke="white"/>
<path d="M242.787 112.003C241.454 112.003 240.552 111.781 240.082 111.336C239.621 110.892 239.39 110.165 239.39 109.157V100.81H238.159V99.3744H239.428V95.8359H241.057V99.3744H243.877V100.81H241.044V109.336C241.044 109.806 241.142 110.131 241.339 110.31C241.535 110.49 242.031 110.58 242.826 110.58C243.151 110.58 243.399 110.575 243.569 110.567C243.749 110.55 243.954 110.537 244.185 110.528V111.9C243.98 111.934 243.758 111.96 243.518 111.977C243.279 111.994 243.035 112.003 242.787 112.003Z" fill="white" stroke="white"/>
<path d="M234.557 111.844H232.891V95.2031H234.557V111.844Z" fill="white" stroke="white"/>
<path d="M223.892 111.995C222.935 111.995 222.213 111.782 221.726 111.354C221.247 110.927 221.008 110.222 221.008 109.239V99.3672H222.649V109.38C222.649 109.799 222.781 110.107 223.046 110.303C223.311 110.5 223.743 110.598 224.341 110.598C224.948 110.598 225.478 110.495 225.931 110.29C226.392 110.085 226.73 109.799 226.944 109.431V99.3672H228.61V111.842H226.944V110.662H226.598C226.033 111.551 225.132 111.995 223.892 111.995Z" fill="white" stroke="white"/>
<path d="M213.509 111.998C212.132 111.998 211.175 111.776 210.637 111.331C210.107 110.887 209.82 110.16 209.778 109.152C209.761 108.887 209.748 108.592 209.739 108.267C209.739 107.934 209.756 107.643 209.791 107.395H211.291C211.273 107.789 211.265 108.152 211.265 108.485C211.273 108.81 211.282 109.088 211.291 109.319C211.299 109.789 211.461 110.113 211.778 110.293C212.103 110.472 212.679 110.562 213.509 110.562C214.355 110.562 214.949 110.472 215.291 110.293C215.641 110.113 215.829 109.789 215.855 109.319C215.88 109.028 215.897 108.814 215.906 108.678C215.915 108.532 215.915 108.327 215.906 108.062C215.88 107.626 215.765 107.289 215.56 107.049C215.355 106.81 214.91 106.639 214.226 106.537L212.726 106.19C211.957 106.028 211.363 105.823 210.944 105.575C210.526 105.327 210.231 105.007 210.06 104.613C209.889 104.212 209.786 103.707 209.752 103.101C209.726 102.793 209.748 102.455 209.816 102.088C209.833 101.054 210.111 100.314 210.65 99.8698C211.197 99.4253 212.188 99.2031 213.624 99.2031C215 99.2031 215.953 99.4211 216.483 99.857C217.021 100.293 217.316 101.011 217.368 102.011C217.368 102.267 217.363 102.562 217.355 102.895C217.355 103.22 217.342 103.507 217.316 103.754H215.765C215.808 103.455 215.825 103.113 215.816 102.729C215.816 102.344 215.808 102.045 215.791 101.831C215.782 101.378 215.624 101.066 215.316 100.895C215.017 100.725 214.453 100.639 213.624 100.639C212.786 100.639 212.214 100.725 211.906 100.895C211.607 101.066 211.44 101.378 211.406 101.831C211.397 102.045 211.385 102.225 211.367 102.37C211.35 102.507 211.346 102.699 211.355 102.947C211.38 103.246 211.423 103.511 211.483 103.742C211.551 103.972 211.697 104.165 211.919 104.319C212.15 104.464 212.521 104.575 213.034 104.652L214.47 104.947C215.513 105.16 216.273 105.494 216.752 105.947C217.231 106.391 217.47 107.066 217.47 107.972C217.47 108.16 217.466 108.361 217.457 108.575C217.457 108.789 217.449 108.994 217.432 109.19C217.372 110.19 217.056 110.908 216.483 111.344C215.919 111.78 214.927 111.998 213.509 111.998Z" fill="white" stroke="white"/>
<path d="M200.228 111.844H198.574V99.3698H200.228V100.536H200.626C200.89 100.109 201.237 99.7801 201.664 99.5493C202.1 99.3185 202.647 99.2031 203.305 99.2031C204.271 99.2031 204.989 99.4168 205.459 99.8442C205.929 100.263 206.164 100.968 206.164 101.96V111.844H204.523V101.819C204.523 101.391 204.386 101.083 204.113 100.895C203.848 100.699 203.416 100.601 202.818 100.601C202.22 100.601 201.694 100.703 201.241 100.908C200.788 101.113 200.45 101.4 200.228 101.767V111.844Z" fill="white" stroke="white"/>
<path d="M190.834 111.998C189.441 111.998 188.458 111.759 187.885 111.28C187.312 110.802 187.005 110.007 186.962 108.896C186.911 108.263 186.877 107.562 186.86 106.793C186.842 106.015 186.842 105.233 186.86 104.447C186.877 103.66 186.911 102.947 186.962 102.306C187.005 101.195 187.312 100.4 187.885 99.9211C188.466 99.4424 189.449 99.2031 190.834 99.2031C192.236 99.2031 193.214 99.4424 193.77 99.9211C194.334 100.4 194.637 101.195 194.68 102.306C194.731 102.938 194.766 103.643 194.783 104.421C194.8 105.19 194.8 105.968 194.783 106.754C194.766 107.532 194.731 108.246 194.68 108.896C194.637 109.998 194.334 110.793 193.77 111.28C193.214 111.759 192.236 111.998 190.834 111.998ZM190.834 110.562C191.62 110.562 192.18 110.468 192.513 110.28C192.847 110.084 193.026 109.763 193.052 109.319C193.137 107.985 193.18 106.746 193.18 105.601C193.18 104.455 193.137 103.216 193.052 101.883C193.026 101.43 192.851 101.109 192.526 100.921C192.201 100.733 191.637 100.639 190.834 100.639C190.03 100.639 189.462 100.733 189.129 100.921C188.804 101.109 188.629 101.43 188.603 101.883C188.526 103.216 188.483 104.46 188.475 105.613C188.475 106.759 188.518 107.994 188.603 109.319C188.62 109.763 188.8 110.084 189.142 110.28C189.492 110.468 190.056 110.562 190.834 110.562Z" fill="white" stroke="white"/>
<path d="M178.694 112.011C177.13 112.011 176.01 111.759 175.335 111.255C174.66 110.75 174.301 109.917 174.258 108.755C174.104 104.712 174.104 100.669 174.258 96.6264C174.301 95.5666 174.664 94.7632 175.348 94.2162C176.031 93.6606 177.138 93.3828 178.668 93.3828C180.249 93.3828 181.399 93.635 182.117 94.1392C182.844 94.6435 183.224 95.4768 183.258 96.6392C183.275 96.9213 183.284 97.2717 183.284 97.6905C183.284 98.1008 183.275 98.5153 183.258 98.9341C183.249 99.3444 183.241 99.6948 183.232 99.9854H181.45C181.467 99.4299 181.476 98.823 181.476 98.1649C181.485 97.5068 181.476 96.8999 181.45 96.3444C181.442 95.8315 181.228 95.464 180.809 95.2418C180.399 95.0196 179.685 94.9085 178.668 94.9085C177.737 94.9085 177.07 95.0196 176.668 95.2418C176.275 95.464 176.066 95.8315 176.04 96.3444C175.903 100.575 175.903 104.81 176.04 109.05C176.066 109.554 176.275 109.921 176.668 110.152C177.07 110.374 177.745 110.486 178.694 110.486C179.762 110.486 180.51 110.374 180.938 110.152C181.373 109.921 181.604 109.554 181.63 109.05C181.655 108.451 181.655 107.81 181.63 107.127C181.613 106.434 181.591 105.789 181.566 105.191H183.386C183.429 105.789 183.455 106.383 183.463 106.973C183.472 107.554 183.455 108.148 183.412 108.755C183.361 109.917 182.967 110.75 182.232 111.255C181.506 111.759 180.326 112.011 178.694 112.011Z" fill="white" stroke="white"/>
<path d="M158.094 112.008C156.906 112.008 156.047 111.748 155.517 111.226C154.996 110.696 154.718 109.842 154.684 108.662C154.667 107.765 154.667 107.068 154.684 106.572C154.701 106.068 154.748 105.555 154.825 105.034C154.893 104.325 155.073 103.735 155.363 103.265C155.654 102.786 155.983 102.354 156.35 101.97C155.949 101.055 155.624 100.162 155.376 99.2903C155.137 98.4185 155.009 97.598 154.991 96.8288C154.914 95.7347 155.115 94.8843 155.594 94.2775C156.081 93.6706 156.872 93.3672 157.966 93.3672C159.068 93.3672 159.863 93.6492 160.35 94.2133C160.846 94.7775 161.06 95.6193 160.991 96.739C160.94 97.6877 160.718 98.5809 160.325 99.4185C159.94 100.256 159.423 101.042 158.773 101.778C158.705 101.863 158.632 101.953 158.556 102.047C158.479 102.141 158.406 102.235 158.338 102.329C158.62 102.91 158.923 103.487 159.248 104.06C159.573 104.632 159.906 105.188 160.248 105.726C160.222 105.248 160.188 104.739 160.145 104.201C160.111 103.662 160.064 103.132 160.004 102.611L161.491 102.585C161.585 103.363 161.654 104.265 161.697 105.29C161.748 106.307 161.752 107.222 161.709 108.034C162.077 108.572 162.427 109.068 162.761 109.521C163.094 109.966 163.393 110.359 163.658 110.701L162.466 111.842C162.278 111.602 162.077 111.355 161.863 111.098C161.658 110.833 161.444 110.56 161.222 110.278C161.009 110.884 160.65 111.325 160.145 111.598C159.65 111.872 158.966 112.008 158.094 112.008ZM157.62 100.713C158.226 100.03 158.667 99.363 158.94 98.7134C159.222 98.0553 159.376 97.3971 159.402 96.739C159.47 96.0809 159.397 95.5894 159.184 95.2646C158.97 94.9313 158.564 94.7646 157.966 94.7646C157.453 94.7646 157.094 94.9228 156.889 95.239C156.692 95.5467 156.594 95.9826 156.594 96.5467C156.603 97.1535 156.697 97.8117 156.876 98.5211C157.064 99.2305 157.312 99.9613 157.62 100.713ZM158.132 110.38C158.885 110.38 159.368 110.222 159.581 109.906C159.803 109.59 159.932 109.107 159.966 108.457C159.47 107.731 158.983 106.974 158.504 106.188C158.026 105.401 157.581 104.602 157.171 103.79C157.034 103.978 156.906 104.188 156.786 104.419C156.675 104.641 156.598 104.889 156.556 105.162C156.479 105.607 156.427 106.072 156.402 106.56C156.385 107.047 156.389 107.76 156.415 108.701C156.432 109.273 156.577 109.696 156.85 109.97C157.124 110.243 157.551 110.38 158.132 110.38Z" fill="white" stroke="white"/>
<path d="M143.558 111.844H141.892V95.2031H143.558V111.844Z" fill="white" stroke="white"/>
<path d="M133.06 111.985C132.018 111.985 131.244 111.78 130.74 111.37C130.244 110.96 129.953 110.319 129.868 109.447C129.859 109.276 129.847 109.105 129.829 108.934C129.821 108.763 129.825 108.596 129.842 108.434C129.902 107.673 130.141 107.037 130.56 106.524C130.979 106.002 131.774 105.528 132.945 105.101C133.424 104.93 133.928 104.776 134.458 104.639C134.988 104.502 135.513 104.37 136.035 104.242V101.87C136.035 101.451 135.877 101.143 135.56 100.947C135.244 100.742 134.693 100.639 133.906 100.639C133.223 100.639 132.701 100.725 132.342 100.895C131.992 101.066 131.8 101.378 131.765 101.831C131.748 102.045 131.74 102.353 131.74 102.754C131.74 103.148 131.748 103.481 131.765 103.754H130.163C130.146 103.541 130.129 103.263 130.112 102.921C130.094 102.579 130.099 102.276 130.124 102.011C130.167 101.019 130.488 100.306 131.086 99.8698C131.693 99.4253 132.654 99.2031 133.971 99.2031C135.347 99.2031 136.3 99.4424 136.83 99.9211C137.368 100.4 137.641 101.186 137.65 102.28V111.844H136.035V110.665H135.676C135.462 111.092 135.154 111.421 134.753 111.652C134.359 111.874 133.795 111.985 133.06 111.985ZM133.471 110.601C134.701 110.601 135.552 110.233 136.022 109.498V105.613C135.612 105.699 135.188 105.801 134.753 105.921C134.325 106.032 133.821 106.186 133.24 106.383C132.547 106.639 132.086 106.934 131.855 107.267C131.624 107.601 131.492 107.99 131.458 108.434C131.466 108.562 131.471 108.703 131.471 108.857C131.479 109.002 131.492 109.156 131.509 109.319C131.569 109.729 131.774 110.045 132.124 110.267C132.475 110.49 132.924 110.601 133.471 110.601Z" fill="white" stroke="white"/>
<path d="M122.202 115.447C121.039 115.447 120.103 115.302 119.394 115.011C118.685 114.72 118.309 114.263 118.266 113.639C118.266 113.571 118.262 113.49 118.253 113.396C118.245 113.302 118.24 113.203 118.24 113.101C118.274 112.725 118.462 112.421 118.804 112.19C119.155 111.96 119.556 111.819 120.009 111.767V111.447C119.163 111.267 118.727 110.9 118.702 110.344C118.693 110.199 118.693 110.054 118.702 109.908C118.71 109.618 118.843 109.374 119.099 109.178C119.364 108.981 119.659 108.866 119.984 108.831V108.511C119.095 108.126 118.621 107.276 118.561 105.96C118.535 105.447 118.514 105.002 118.497 104.626C118.488 104.242 118.488 103.857 118.497 103.472C118.505 103.079 118.527 102.618 118.561 102.088C118.603 101.071 118.898 100.336 119.445 99.8826C120.001 99.4296 120.886 99.2031 122.099 99.2031C122.988 99.2031 123.693 99.3057 124.215 99.5108C124.736 99.7159 125.112 100.036 125.343 100.472H125.702C125.762 99.7373 126.313 99.3698 127.356 99.3698V100.806H126.907C126.146 100.806 125.749 101.246 125.715 102.126L125.689 103.139C125.706 103.635 125.715 104.084 125.715 104.485C125.715 104.887 125.689 105.378 125.638 105.96C125.595 106.994 125.304 107.733 124.766 108.178C124.227 108.622 123.339 108.844 122.099 108.844C121.381 108.836 120.86 108.891 120.535 109.011C120.21 109.131 120.048 109.327 120.048 109.601V109.703C120.065 109.951 120.245 110.126 120.586 110.229C120.928 110.331 121.497 110.391 122.292 110.408C123.565 110.443 124.539 110.626 125.215 110.96C125.898 111.284 126.27 111.827 126.33 112.588V113.255C126.27 114.058 125.86 114.622 125.099 114.947C124.339 115.28 123.373 115.447 122.202 115.447ZM122.099 107.395C122.783 107.395 123.266 107.301 123.548 107.113C123.839 106.925 123.997 106.618 124.022 106.19C124.065 105.584 124.086 104.878 124.086 104.075C124.086 103.263 124.065 102.524 124.022 101.857C123.997 101.404 123.839 101.088 123.548 100.908C123.257 100.729 122.774 100.639 122.099 100.639C121.424 100.639 120.941 100.733 120.651 100.921C120.36 101.101 120.198 101.417 120.163 101.87C120.069 103.494 120.069 104.925 120.163 106.165C120.198 106.584 120.364 106.895 120.663 107.101C120.962 107.297 121.441 107.395 122.099 107.395ZM122.24 114.088C122.975 114.088 123.574 114.019 124.035 113.883C124.505 113.746 124.757 113.502 124.792 113.152C124.8 113.058 124.8 112.968 124.792 112.883C124.792 112.806 124.792 112.725 124.792 112.639C124.757 112.272 124.51 112.032 124.048 111.921C123.595 111.819 122.992 111.759 122.24 111.742C121.514 111.725 120.933 111.78 120.497 111.908C120.069 112.037 119.834 112.284 119.792 112.652V113.152C119.834 113.528 120.074 113.776 120.509 113.896C120.945 114.024 121.522 114.088 122.24 114.088Z" fill="white" stroke="white"/>
<path d="M111.178 111.998C109.768 111.998 108.759 111.776 108.152 111.331C107.554 110.887 107.233 110.16 107.191 109.152C107.157 108.519 107.131 107.776 107.114 106.921C107.105 106.066 107.105 105.207 107.114 104.344C107.131 103.481 107.157 102.729 107.191 102.088C107.233 101.054 107.563 100.314 108.178 99.8698C108.802 99.4253 109.802 99.2031 111.178 99.2031C112.477 99.2031 113.417 99.4211 113.999 99.857C114.58 100.293 114.9 101.011 114.96 102.011C114.977 102.31 114.994 102.831 115.011 103.575C115.028 104.319 115.003 105.109 114.934 105.947H108.793C108.793 106.485 108.798 107.032 108.806 107.588C108.815 108.143 108.832 108.72 108.857 109.319C108.866 109.789 109.045 110.113 109.396 110.293C109.746 110.472 110.323 110.562 111.127 110.562C111.922 110.562 112.481 110.472 112.806 110.293C113.131 110.113 113.31 109.789 113.345 109.319C113.37 108.849 113.37 108.207 113.345 107.395H114.934C114.977 107.643 114.994 107.934 114.986 108.267C114.986 108.592 114.977 108.887 114.96 109.152C114.9 110.16 114.593 110.887 114.037 111.331C113.49 111.776 112.537 111.998 111.178 111.998ZM108.793 104.588H113.37C113.387 104.007 113.396 103.451 113.396 102.921C113.396 102.391 113.379 102.028 113.345 101.831C113.31 101.404 113.127 101.101 112.793 100.921C112.46 100.733 111.922 100.639 111.178 100.639C110.349 100.639 109.755 100.733 109.396 100.921C109.045 101.101 108.866 101.404 108.857 101.831C108.832 102.327 108.81 102.801 108.793 103.254C108.785 103.707 108.785 104.152 108.793 104.588Z" fill="white" stroke="white"/>
<path d="M103.026 111.844H101.359V95.2031H103.026V111.844Z" fill="white" stroke="white"/>
<path d="M85.7985 111.985C84.7558 111.985 83.9823 111.78 83.478 111.37C82.9823 110.96 82.6917 110.319 82.6062 109.447C82.5977 109.276 82.5848 109.105 82.5678 108.934C82.5592 108.763 82.5635 108.596 82.5806 108.434C82.6404 107.673 82.8797 107.037 83.2985 106.524C83.7173 106.002 84.5122 105.528 85.6832 105.101C86.1618 104.93 86.6661 104.776 87.196 104.639C87.7259 104.502 88.2516 104.37 88.7729 104.242V101.87C88.7729 101.451 88.6148 101.143 88.2986 100.947C87.9823 100.742 87.431 100.639 86.6447 100.639C85.9609 100.639 85.4396 100.725 85.0806 100.895C84.7302 101.066 84.5379 101.378 84.5037 101.831C84.4866 102.045 84.478 102.353 84.478 102.754C84.478 103.148 84.4866 103.481 84.5037 103.754H82.9011C82.884 103.541 82.8669 103.263 82.8498 102.921C82.8327 102.579 82.837 102.276 82.8626 102.011C82.9054 101.019 83.2259 100.306 83.8242 99.8698C84.431 99.4253 85.3926 99.2031 86.7088 99.2031C88.0849 99.2031 89.0379 99.4424 89.5678 99.9211C90.1063 100.4 90.3798 101.186 90.3883 102.28V111.844H88.7729V110.665H88.414C88.2003 111.092 87.8926 111.421 87.4909 111.652C87.0977 111.874 86.5336 111.985 85.7985 111.985ZM86.2088 110.601C87.4396 110.601 88.29 110.233 88.7601 109.498V105.613C88.3498 105.699 87.9268 105.801 87.4909 105.921C87.0635 106.032 86.5592 106.186 85.978 106.383C85.2857 106.639 84.8242 106.934 84.5934 107.267C84.3626 107.601 84.2302 107.99 84.196 108.434C84.2045 108.562 84.2088 108.703 84.2088 108.857C84.2173 109.002 84.2302 109.156 84.2473 109.319C84.3071 109.729 84.5122 110.045 84.8626 110.267C85.2131 110.49 85.6618 110.601 86.2088 110.601Z" fill="white" stroke="white"/>
<path d="M78.6061 111.842H76.9395V99.3676H78.6061V111.842ZM78.3754 98.4574H77.2856L78.4651 95.7266H79.619L78.3754 98.4574Z" fill="white" stroke="white"/>
<path d="M68.0562 111.844H66.4023V99.3698H68.0562V100.536H68.4152C68.6374 100.109 68.9323 99.7801 69.2998 99.5493C69.6673 99.3185 70.1246 99.2031 70.6716 99.2031C71.4921 99.2031 72.099 99.4211 72.4921 99.857C72.8938 100.284 73.0947 101.028 73.0947 102.088C73.0947 102.319 73.0862 102.592 73.0691 102.908C73.052 103.225 73.0263 103.507 72.9921 103.754H71.4024C71.4195 103.669 71.428 103.519 71.428 103.306C71.4366 103.092 71.4408 102.878 71.4408 102.665C71.4494 102.451 71.4537 102.306 71.4537 102.229C71.4537 101.596 71.3468 101.169 71.1332 100.947C70.9195 100.716 70.5776 100.601 70.1075 100.601C69.1075 100.601 68.4237 100.989 68.0562 101.767V111.844Z" fill="white" stroke="white"/>
<path d="M58.621 111.998C57.2278 111.998 56.2449 111.759 55.6723 111.28C55.0996 110.802 54.7919 110.007 54.7492 108.896C54.6979 108.263 54.6637 107.562 54.6466 106.793C54.6295 106.015 54.6295 105.233 54.6466 104.447C54.6637 103.66 54.6979 102.947 54.7492 102.306C54.7919 101.195 55.0996 100.4 55.6723 99.9211C56.2535 99.4424 57.2364 99.2031 58.621 99.2031C60.0227 99.2031 61.0014 99.4424 61.5569 99.9211C62.121 100.4 62.4244 101.195 62.4672 102.306C62.5185 102.938 62.5527 103.643 62.5697 104.421C62.5868 105.19 62.5868 105.968 62.5697 106.754C62.5527 107.532 62.5185 108.246 62.4672 108.896C62.4244 109.998 62.121 110.793 61.5569 111.28C61.0014 111.759 60.0227 111.998 58.621 111.998ZM58.621 110.562C59.4073 110.562 59.9672 110.468 60.3005 110.28C60.6338 110.084 60.8133 109.763 60.839 109.319C60.9244 107.985 60.9672 106.746 60.9672 105.601C60.9672 104.455 60.9244 103.216 60.839 101.883C60.8133 101.43 60.6381 101.109 60.3133 100.921C59.9885 100.733 59.4244 100.639 58.621 100.639C57.8176 100.639 57.2492 100.733 56.9159 100.921C56.5911 101.109 56.4159 101.43 56.3902 101.883C56.3133 103.216 56.2706 104.46 56.262 105.613C56.262 106.759 56.3047 107.994 56.3902 109.319C56.4073 109.763 56.5868 110.084 56.9287 110.28C57.2791 110.468 57.8432 110.562 58.621 110.562Z" fill="white" stroke="white"/>
<path d="M47.2644 111.998C45.8883 111.998 44.931 111.776 44.3926 111.331C43.8626 110.887 43.5763 110.16 43.5336 109.152C43.5165 108.887 43.5037 108.592 43.4951 108.267C43.4951 107.934 43.5122 107.643 43.5464 107.395H45.0464C45.0293 107.789 45.0208 108.152 45.0208 108.485C45.0293 108.81 45.0379 109.088 45.0464 109.319C45.055 109.789 45.2174 110.113 45.5336 110.293C45.8584 110.472 46.4353 110.562 47.2644 110.562C48.1105 110.562 48.7046 110.472 49.0464 110.293C49.3969 110.113 49.5849 109.789 49.6106 109.319C49.6362 109.028 49.6533 108.814 49.6618 108.678C49.6704 108.532 49.6704 108.327 49.6618 108.062C49.6362 107.626 49.5208 107.289 49.3157 107.049C49.1105 106.81 48.6661 106.639 47.9823 106.537L46.4823 106.19C45.7131 106.028 45.1191 105.823 44.7003 105.575C44.2814 105.327 43.9866 105.007 43.8156 104.613C43.6447 104.212 43.5421 103.707 43.5079 103.101C43.4823 102.793 43.5037 102.455 43.572 102.088C43.5891 101.054 43.8669 100.314 44.4054 99.8698C44.9524 99.4253 45.9439 99.2031 47.3798 99.2031C48.7558 99.2031 49.7088 99.4211 50.2388 99.857C50.7772 100.293 51.0721 101.011 51.1234 102.011C51.1234 102.267 51.1191 102.562 51.1106 102.895C51.1106 103.22 51.0977 103.507 51.0721 103.754H49.5208C49.5635 103.455 49.5806 103.113 49.5721 102.729C49.5721 102.344 49.5635 102.045 49.5464 101.831C49.5379 101.378 49.3798 101.066 49.0721 100.895C48.7729 100.725 48.2088 100.639 47.3798 100.639C46.5421 100.639 45.9695 100.725 45.6618 100.895C45.3627 101.066 45.196 101.378 45.1618 101.831C45.1532 102.045 45.1404 102.225 45.1233 102.37C45.1062 102.507 45.102 102.699 45.1105 102.947C45.1362 103.246 45.1789 103.511 45.2387 103.742C45.3071 103.972 45.4524 104.165 45.6746 104.319C45.9054 104.464 46.2772 104.575 46.79 104.652L48.2259 104.947C49.2687 105.16 50.0294 105.494 50.508 105.947C50.9866 106.391 51.2259 107.066 51.2259 107.972C51.2259 108.16 51.2217 108.361 51.2131 108.575C51.2131 108.789 51.2046 108.994 51.1875 109.19C51.1277 110.19 50.8114 110.908 50.2388 111.344C49.6747 111.78 48.6832 111.998 47.2644 111.998Z" fill="white" stroke="white"/>
<path d="M36.3176 111.998C34.9073 111.998 33.8988 111.776 33.292 111.331C32.6937 110.887 32.3731 110.16 32.3304 109.152C32.2962 108.519 32.2706 107.776 32.2535 106.921C32.2449 106.066 32.2449 105.207 32.2535 104.344C32.2706 103.481 32.2962 102.729 32.3304 102.088C32.3731 101.054 32.7022 100.314 33.3176 99.8698C33.9415 99.4253 34.9415 99.2031 36.3176 99.2031C37.6168 99.2031 38.5569 99.4211 39.1382 99.857C39.7194 100.293 40.0399 101.011 40.0997 102.011C40.1168 102.31 40.1339 102.831 40.151 103.575C40.1681 104.319 40.1424 105.109 40.0741 105.947H33.933C33.933 106.485 33.9373 107.032 33.9458 107.588C33.9543 108.143 33.9714 108.72 33.9971 109.319C34.0056 109.789 34.1851 110.113 34.5356 110.293C34.886 110.472 35.4629 110.562 36.2663 110.562C37.0612 110.562 37.621 110.472 37.9458 110.293C38.2706 110.113 38.4501 109.789 38.4843 109.319C38.5099 108.849 38.5099 108.207 38.4843 107.395H40.0741C40.1168 107.643 40.1339 107.934 40.1253 108.267C40.1253 108.592 40.1168 108.887 40.0997 109.152C40.0399 110.16 39.7322 110.887 39.1766 111.331C38.6296 111.776 37.6766 111.998 36.3176 111.998ZM33.933 104.588H38.5099C38.527 104.007 38.5356 103.451 38.5356 102.921C38.5356 102.391 38.5185 102.028 38.4843 101.831C38.4501 101.404 38.2663 101.101 37.933 100.921C37.5997 100.733 37.0612 100.639 36.3176 100.639C35.4885 100.639 34.8945 100.733 34.5356 100.921C34.1851 101.101 34.0056 101.404 33.9971 101.831C33.9714 102.327 33.9501 102.801 33.933 103.254C33.9244 103.707 33.9244 104.152 33.933 104.588Z" fill="white" stroke="white"/>
<path d="M24.8835 111.998C23.5074 111.998 22.5502 111.776 22.0117 111.331C21.4818 110.887 21.1955 110.16 21.1527 109.152C21.1356 108.887 21.1228 108.592 21.1143 108.267C21.1143 107.934 21.1314 107.643 21.1655 107.395H22.6656C22.6485 107.789 22.6399 108.152 22.6399 108.485C22.6485 108.81 22.657 109.088 22.6656 109.319C22.6741 109.789 22.8365 110.113 23.1527 110.293C23.4775 110.472 24.0545 110.562 24.8835 110.562C25.7297 110.562 26.3237 110.472 26.6656 110.293C27.016 110.113 27.204 109.789 27.2297 109.319C27.2553 109.028 27.2724 108.814 27.281 108.678C27.2895 108.532 27.2895 108.327 27.281 108.062C27.2553 107.626 27.1399 107.289 26.9348 107.049C26.7297 106.81 26.2852 106.639 25.6015 106.537L24.1015 106.19C23.3322 106.028 22.7382 105.823 22.3194 105.575C21.9006 105.327 21.6057 105.007 21.4348 104.613C21.2638 104.212 21.1613 103.707 21.1271 103.101C21.1014 102.793 21.1228 102.455 21.1912 102.088C21.2083 101.054 21.4861 100.314 22.0245 99.8698C22.5715 99.4253 23.563 99.2031 24.9989 99.2031C26.375 99.2031 27.328 99.4211 27.8579 99.857C28.3964 100.293 28.6912 101.011 28.7425 102.011C28.7425 102.267 28.7382 102.562 28.7297 102.895C28.7297 103.22 28.7169 103.507 28.6912 103.754H27.1399C27.1827 103.455 27.1998 103.113 27.1912 102.729C27.1912 102.344 27.1827 102.045 27.1656 101.831C27.157 101.378 26.9989 101.066 26.6912 100.895C26.3921 100.725 25.828 100.639 24.9989 100.639C24.1613 100.639 23.5886 100.725 23.2809 100.895C22.9818 101.066 22.8151 101.378 22.7809 101.831C22.7724 102.045 22.7596 102.225 22.7425 102.37C22.7254 102.507 22.7211 102.699 22.7297 102.947C22.7553 103.246 22.798 103.511 22.8579 103.742C22.9262 103.972 23.0715 104.165 23.2938 104.319C23.5245 104.464 23.8963 104.575 24.4092 104.652L25.8451 104.947C26.8878 105.16 27.6485 105.494 28.1271 105.947C28.6058 106.391 28.8451 107.066 28.8451 107.972C28.8451 108.16 28.8408 108.361 28.8323 108.575C28.8323 108.789 28.8237 108.994 28.8066 109.19C28.7468 110.19 28.4306 110.908 27.8579 111.344C27.2938 111.78 26.3023 111.998 24.8835 111.998Z" fill="white" stroke="white"/>
<path d="M10.4865 111.839H8.66602L11.5635 93.5312H15.2302L18.1533 111.839H16.3327L15.5379 106.762H11.2814L10.4865 111.839ZM12.025 101.134L11.4481 105.121H15.3712L14.8199 101.121L13.9225 95.1723H12.9096L12.025 101.134Z" fill="white" stroke="white"/>
<rect x="427.44" y="1.07031" width="91.0777" height="31.1797" rx="4" fill="white"/>
<path d="M505.374 26.5104H501.999V5.91406H507.581C509.667 5.91406 511.177 6.27945 512.11 7.01023C513.042 7.741 513.552 8.94774 513.639 10.6304C513.706 11.4285 513.74 12.1641 513.74 12.8372C513.74 13.5007 513.706 14.217 513.639 14.9862C513.552 16.6593 513.038 17.8613 512.095 18.592C511.163 19.3228 509.643 19.6882 507.538 19.6882H505.374V26.5104ZM505.374 8.97178V16.6305H507.538C508.47 16.6305 509.143 16.5055 509.557 16.2555C509.98 16.0055 510.211 15.6449 510.249 15.1738C510.316 14.4622 510.35 13.6737 510.35 12.8083C510.35 11.9333 510.316 11.1449 510.249 10.4429C510.211 9.96217 509.985 9.59678 509.571 9.34678C509.158 9.09678 508.494 8.97178 507.581 8.97178H505.374Z" fill="black"/>
<path d="M490.73 26.7412C488.557 26.7412 486.994 26.371 486.043 25.6306C485.1 24.8806 484.619 23.6402 484.6 21.9094C484.485 16.5728 484.485 11.241 484.6 5.91406H487.975C487.908 8.5487 487.874 11.3228 487.874 14.2362C487.874 17.1401 487.894 19.9142 487.932 22.5584C487.932 23.4623 488.865 23.9142 490.73 23.9142C492.547 23.9142 493.456 23.4623 493.456 22.5584C493.504 19.9142 493.528 17.1401 493.528 14.2362C493.538 11.3228 493.514 8.5487 493.456 5.91406H496.831C496.946 11.241 496.946 16.5728 496.831 21.9094C496.821 23.6402 496.341 24.8806 495.389 25.6306C494.437 26.371 492.884 26.7412 490.73 26.7412Z" fill="black"/>
<path d="M473.405 26.7442C471.28 26.7442 469.751 26.374 468.818 25.6336C467.886 24.8836 467.395 23.6432 467.347 21.9124C467.28 20.0855 467.246 18.1864 467.246 16.2152C467.246 14.2344 467.28 12.3306 467.347 10.5036C467.395 8.78248 467.886 7.54689 468.818 6.79688C469.751 6.04688 471.28 5.67188 473.405 5.67188C475.539 5.67188 477.068 6.04688 477.991 6.79688C478.924 7.54689 479.414 8.78248 479.463 10.5036C479.53 12.3498 479.564 14.2585 479.564 16.2297C479.564 18.1912 479.53 20.0855 479.463 21.9124C479.414 23.6432 478.924 24.8836 477.991 25.6336C477.068 26.374 475.539 26.7442 473.405 26.7442ZM473.405 23.9172C474.347 23.9172 475.025 23.8018 475.438 23.5711C475.852 23.3403 476.068 23.0037 476.088 22.5614C476.164 21.2922 476.213 19.9172 476.232 18.4364C476.251 16.946 476.246 15.4556 476.217 13.9652C476.198 12.4748 476.155 11.1046 476.088 9.8546C476.068 9.40267 475.847 9.06613 475.424 8.84498C475.001 8.61421 474.328 8.49882 473.405 8.49882C472.491 8.49882 471.823 8.61421 471.4 8.84498C470.977 9.06613 470.751 9.40267 470.722 9.8546C470.645 11.1046 470.597 12.4748 470.578 13.9652C470.559 15.4556 470.563 16.946 470.592 18.4364C470.621 19.9172 470.664 21.2922 470.722 22.5614C470.751 23.0037 470.977 23.3403 471.4 23.5711C471.823 23.8018 472.491 23.9172 473.405 23.9172Z" fill="black"/>
<path d="M453.886 26.5104H450.511V5.91406H456.035C458.102 5.91406 459.597 6.27945 460.52 7.01023C461.453 7.741 461.958 8.94774 462.035 10.6304C462.102 11.4285 462.131 12.1112 462.121 12.6785C462.121 13.2459 462.093 13.9141 462.035 14.6834C461.987 15.7507 461.742 16.6209 461.299 17.294C460.857 17.9574 460.179 18.4622 459.266 18.8084L462.626 26.5104H459.02L456.049 19.3853H453.886V26.5104ZM453.886 8.97178V16.3276H455.992C456.905 16.3276 457.568 16.2026 457.982 15.9526C458.395 15.7026 458.621 15.342 458.66 14.8709C458.785 13.3901 458.785 11.9141 458.66 10.4429C458.621 9.96217 458.395 9.59678 457.982 9.34678C457.568 9.09678 456.919 8.97178 456.035 8.97178H453.886Z" fill="black"/>
<path d="M439.343 26.7442C437.228 26.7442 435.718 26.374 434.814 25.6336C433.92 24.8836 433.444 23.6384 433.386 21.898C433.338 20.8306 433.305 19.6239 433.286 18.2777C433.276 16.9316 433.276 15.595 433.286 14.2681C433.305 12.9315 433.338 11.744 433.386 10.7056C433.444 8.87863 433.925 7.58535 434.829 6.82573C435.742 6.05649 437.242 5.67188 439.329 5.67188C441.319 5.67188 442.771 6.04688 443.685 6.79688C444.598 7.54689 445.103 8.78248 445.199 10.5036C445.247 10.946 445.266 11.4508 445.257 12.0181C445.257 12.5758 445.238 13.0806 445.199 13.5325H441.824C441.863 13.0133 441.882 12.4027 441.882 11.7008C441.891 10.9892 441.872 10.3738 441.824 9.8546C441.747 8.95075 440.915 8.49882 439.329 8.49882C437.665 8.49882 436.81 8.95075 436.762 9.8546C436.694 11.1431 436.651 12.5229 436.632 13.9941C436.612 15.4652 436.612 16.9364 436.632 18.4076C436.661 19.8787 436.704 21.2585 436.762 22.547C436.781 22.9893 436.997 23.3307 437.411 23.5711C437.824 23.8018 438.468 23.9172 439.343 23.9172C441.045 23.9172 441.949 23.4605 442.055 22.547C442.074 22.172 442.084 21.7008 442.084 21.1335C442.084 20.5566 442.074 20.0855 442.055 19.7201H439.473V16.7056H445.358C445.396 17.4652 445.415 18.3066 445.415 19.2297C445.415 20.1528 445.387 21.0422 445.329 21.898C445.262 23.6384 444.762 24.8836 443.829 25.6336C442.896 26.374 441.401 26.7442 439.343 26.7442Z" fill="black"/>
</svg>
